<?xml version="1.0" encoding="iso-8859-1"?>
<!-- Generator: Adobe Illustrator 18.0.0, SVG Export Plug-In . SVG Version: 6.00 Build 0)  -->
<!DOCTYPE svg PUBLIC "-//W3C//DTD SVG 1.1//EN" "http://www.w3.org/Graphics/SVG/1.1/DTD/svg11.dtd">
<svg version="1.1" id="svg63282" xmlns:svg="http://www.w3.org/2000/svg"
	 xmlns="http://www.w3.org/2000/svg" xmlns:xlink="http://www.w3.org/1999/xlink" x="0px" y="0px"
	 viewBox="61.651 68.016 762.288 466.488" style="enable-background:new 61.651 68.016 762.288 466.488;" xml:space="preserve">
<g id="g63359" transform="matrix(3.774022,0,0,3.774022,-926.8121,-1696.948)">
	<path id="path58300" style="fill:#050067;" d="M463.895,591.266V467.661H261.913v123.605H463.895z"/>
	<path id="path58344" style="fill:#E3B837;" d="M363.614,571.607c9.984,9.045,23.204,14.542,37.711,14.542
		c31.031,0,56.183-25.152,56.183-56.183s-25.152-56.183-56.183-56.183c-14.507,0-27.726,5.496-37.711,14.542
		c-11.341,10.262-18.473,25.117-18.473,41.642S352.273,561.31,363.614,571.607"/>
	<path id="path58346" style="fill:#E3B837;" d="M451.593,561.17h0.209c0.07,0,0.139,0,0.209-0.035
		c0.07-0.035,0.104-0.104,0.104-0.174s-0.035-0.139-0.104-0.174c-0.035-0.035-0.139-0.035-0.209-0.035h-0.209V561.17z
		 M451.593,562.075h-0.383v-1.6h0.696c0.139,0,0.278,0,0.383,0.07c0.139,0.104,0.209,0.244,0.209,0.418s-0.104,0.348-0.278,0.417
		l0.313,0.696h-0.417l-0.244-0.626h-0.278V562.075z M451.837,562.666c0.765,0,1.392-0.626,1.392-1.392s-0.626-1.392-1.392-1.392
		c-0.765,0-1.391,0.626-1.391,1.392S451.072,562.666,451.837,562.666 M450.028,561.275c0-1.009,0.8-1.809,1.809-1.809
		c1.009,0,1.809,0.8,1.809,1.809c0,1.009-0.8,1.809-1.809,1.809C450.828,563.084,450.028,562.284,450.028,561.275"/>
	<path id="path58348" style="fill:#E3B837;" d="M363.614,571.607c-11.341-10.297-18.473-25.117-18.473-41.642
		s7.132-31.379,18.473-41.642"/>
	<path id="path58350" style="fill:none;stroke:#E3B837;stroke-width:0.9393;" d="M363.614,571.607
		c-11.341-10.297-18.473-25.117-18.473-41.642s7.132-31.379,18.473-41.642"/>
	<path id="path58352" style="fill:#BE002E;" d="M381.773,524.016c-0.209-2.018-0.557-4.001-0.974-5.949h-34.406
		c0.452-2.018,1.009-4.001,1.635-5.949h31.136c-0.661-2.052-1.461-4.035-2.366-5.949h-26.37c0.974-2.052,2.053-4.035,3.235-5.949
		h19.899c-1.287-2.087-2.748-4.07-4.279-5.949h-11.341c1.739-2.122,3.618-4.105,5.67-5.949
		c-9.984-9.045-23.204-14.542-37.711-14.542c-31.031,0-56.183,25.152-56.183,56.183s25.152,56.183,56.183,56.183
		c14.507,0,27.726-5.497,37.711-14.542c2.018-1.844,3.931-3.827,5.671-5.949h-11.341c-1.565-1.879-2.957-3.862-4.279-5.949h19.899
		c1.183-1.913,2.261-3.896,3.235-5.949h-26.37c-0.904-1.948-1.705-3.896-2.4-5.949h31.136c0.661-1.948,1.218-3.931,1.635-5.949
		c0.417-1.948,0.765-3.931,0.974-5.949c0.209-1.948,0.313-3.931,0.313-5.949C382.086,527.948,381.982,525.965,381.773,524.016"/>
	<path id="path58354" style="fill:#FFFFFF;" d="M451.593,542.872h0.209c0.07,0,0.139,0.035,0.209,0
		c0.07-0.07,0.104-0.139,0.104-0.209c0-0.07-0.035-0.139-0.104-0.139c-0.035-0.07-0.139-0.035-0.209-0.035h-0.209V542.872z
		 M451.593,543.776h-0.383v-1.565h0.696c0.139,0,0.278,0,0.383,0.07c0.139,0.07,0.209,0.243,0.209,0.383
		c0,0.209-0.104,0.348-0.278,0.417l0.313,0.696h-0.417l-0.244-0.626h-0.278V543.776z M451.837,544.368
		c0.765,0,1.392-0.626,1.392-1.357c0-0.765-0.626-1.392-1.392-1.392c-0.765,0-1.391,0.626-1.391,1.392
		C450.445,543.741,451.072,544.368,451.837,544.368 M450.028,543.011c0-1.009,0.8-1.844,1.809-1.844
		c1.009,0,1.809,0.835,1.809,1.844c0,0.974-0.8,1.809-1.809,1.809C450.828,544.82,450.028,543.985,450.028,543.011"/>
	<path id="path58356" d="M344.515,546.177c-1.879,0.522-3.201,0.765-4.592,0.765c-2.853,0-4.627-1.809-4.627-5.079
		c0-0.661,0.07-1.357,0.174-2.087l0.383-2.261l0.278-1.844l2.644-15.829h5.879l-0.696,3.444h3.653l-0.87,5.844h-3.687l-1.566,9.462
		c-0.07,0.417-0.104,0.765-0.104,0.974c0,1.183,0.626,1.705,2.087,1.705c0.696,0,1.218-0.07,1.844-0.209L344.515,546.177z"/>
	<path id="path58358" d="M359.717,532.192c0.035-0.487,0.035-0.904,0.035-1.183c0-1.879-1.044-2.992-2.887-2.992
		c-1.913,0-3.305,1.496-3.862,4.14L359.717,532.192z M363.335,545.968c-2.087,0.626-4.105,0.939-6.227,0.939
		c-6.54,0-10.367-3.548-10.367-10.367c0-7.966,4.488-13.811,10.645-13.811c5.009,0,8.21,3.27,8.21,8.419
		c0,1.705-0.209,3.374-0.731,5.705h-12.141c-0.035,0.383-0.035,0.522-0.035,0.731c0,2.679,1.809,4.07,5.323,4.07
		c2.192,0,4.14-0.452,6.331-1.461L363.335,545.968z"/>
	<path id="path58360" d="M297.968,546.49h-6.123l3.514-21.917l-7.793,21.917h-4.175l-0.522-21.812l-3.653,21.812h-5.914
		l4.766-28.526h8.767l0.243,17.672l5.914-17.672h9.636L297.968,546.49z"/>
	<path id="path58362" d="M317.415,546.49h-5.253l0.104-2.4c-1.322,1.774-3.131,2.783-6.401,2.783c-2.957,0-5.427-2.574-5.427-6.331
		c0-1.113,0.209-2.087,0.452-3.027c0.974-3.548,4.592-5.81,10.123-5.914c0.696,0,1.774,0,2.679,0.104
		c0.209-0.765,0.243-1.078,0.243-1.496c0-1.531-1.252-2.018-4.105-2.018c-1.739,0-3.688,0.278-5.044,0.696l-0.87,0.243l-0.348,0.07
		l0.835-5.184c2.853-0.87,4.87-1.252,7.097-1.252c5.253,0,8.036,2.366,8.036,6.818c0,1.148,0.104,2.018-0.313,4.592l-1.252,8.21
		l-0.244,1.496l-0.139,1.148l-0.104,0.8L317.415,546.49z M312.614,536.158c-0.661-0.07-0.765-0.104-1.218-0.104
		c-3.444,0-5.183,1.322-5.183,3.514c0,1.461,0.835,2.366,2.192,2.366C311.327,541.932,312.51,539.567,312.614,536.158"/>
	<path id="path58364" d="M392.662,523.495c1.705,0,3.305,0.452,5.462,1.565l1.009-6.192c-0.557-0.209-0.696-0.278-1.496-0.557
		l-2.505-0.626c-0.765-0.209-1.67-0.313-2.714-0.313c-3.026,0-4.801,0.035-6.645,1.183c-0.974,0.591-2.192,1.461-3.618,3.027
		l-0.731-0.209l-6.227,4.418l0.313-2.505h-6.471l-3.722,23.204h6.123l2.226-12.489c0,0,0.87-1.705,1.252-2.226
		c1.113-1.531,2.122-1.531,3.409-1.496c0.139,0,0.348,0,0.418,0c-0.174,1.357-0.278,2.818-0.278,4.418
		c0,7.584,4.314,12.28,10.889,12.28c1.67,0,3.131-0.209,5.357-0.8l1.078-6.505c-2.018,0.974-3.653,1.461-5.183,1.461
		c-3.548,0-5.671-2.609-5.671-6.958C384.939,527.913,388.105,523.495,392.662,523.495"/>
	<path id="path58366" d="M436.773,541.028c-2.053,0-3.131-1.531-3.131-4.592c0-4.557,1.983-7.793,4.731-7.793
		c2.122,0,3.235,1.6,3.235,4.557C441.609,537.793,439.626,541.028,436.773,541.028 M444.218,517.963l-1.357,8.14
		c-1.461-2.192-3.201-3.235-5.566-3.235c-3.201,0-6.157,1.809-8.001,5.253v-0.035l-3.862-2.296l0.278-2.505h-6.436l-3.722,23.204
		h6.088l2.018-12.489c0,0,1.565-1.739,1.948-2.261c0.905-1.183,1.913-1.426,2.714-1.461c-0.696,1.948-1.113,4.244-1.113,6.888
		c0,5.775,3.027,9.602,7.479,9.602c2.227,0,3.966-0.765,5.636-2.574l-0.313,2.296h5.775l4.627-28.526H444.218z"/>
	<path id="path58368" d="M413.5,546.49h-5.253l0.104-2.4c-1.322,1.774-3.131,2.783-6.401,2.783c-2.922,0-5.636-2.539-5.601-6.366
		c0.035-5.496,4.175-8.906,10.75-8.906c0.696,0,1.774,0,2.679,0.104c0.209-0.765,0.244-1.078,0.244-1.496
		c0-1.531-1.252-2.018-4.105-2.018c-1.739,0-3.688,0.278-5.044,0.696l-0.835,0.243l-0.383,0.07l0.87-5.184
		c2.853-0.87,4.836-1.252,7.062-1.252c5.253,0,8.001,2.366,8.001,6.818c0,1.148,0.139,2.018-0.278,4.592l-1.252,8.21l-0.209,1.496
		l-0.174,1.148l-0.104,0.8L413.5,546.49z M408.699,536.158c-0.626-0.07-0.765-0.104-1.218-0.104c-3.444,0-5.183,1.322-5.183,3.514
		c0,1.461,0.835,2.366,2.192,2.366C407.412,541.932,408.595,539.567,408.699,536.158"/>
	<path id="path58370" d="M330.147,528.261c1.183,0,2.818,0.104,4.592,0.348l0.835-5.357c-1.774-0.243-4.036-0.452-5.427-0.452
		c-6.819,0-9.08,3.618-9.08,7.897c0,2.748,1.357,4.836,4.557,6.366c2.47,1.148,2.887,1.357,2.887,2.4
		c0,1.461-1.252,2.261-3.653,2.261c-1.809,0-3.514-0.278-5.462-0.904l-0.696,5.323l0.139,0.035l1.113,0.243
		c0.348,0.07,0.904,0.139,1.6,0.209c1.426,0.139,2.679,0.209,3.444,0.209c6.784,0,9.567-2.609,9.567-7.723
		c0-3.166-1.496-5.044-4.557-6.436c-2.574-1.183-2.853-1.357-2.853-2.435C327.19,529.165,328.269,528.261,330.147,528.261"/>
	<path id="path58372" style="fill:#FFFFFF;" d="M400.768,517.059l-0.974,6.192c-2.192-1.078-3.757-1.531-5.462-1.531
		c-4.557,0-7.758,4.383-7.758,10.68c0,4.314,2.157,6.923,5.705,6.923c1.496,0,3.166-0.452,5.183-1.461l-1.078,6.505
		c-2.261,0.626-3.688,0.835-5.392,0.835c-6.575,0-10.645-4.731-10.645-12.315c0-10.193,5.636-17.29,13.707-17.29
		c1.044,0,1.983,0.104,2.748,0.278l2.505,0.626C400.072,516.781,400.246,516.85,400.768,517.059"/>
	<path id="path58374" style="fill:#FFFFFF;" d="M381.182,521.303c-0.174-0.035-0.383-0.035-0.591-0.035
		c-2.018,0-3.131,1.009-5.009,3.757l0.522-3.514h-5.497l-3.722,23.169h6.088c2.192-14.159,2.783-16.629,5.705-16.629
		c0.174,0,0.174,0,0.417,0.035c0.557-2.783,1.322-4.836,2.331-6.714L381.182,521.303z"/>
	<path id="path58376" style="fill:#FFFFFF;" d="M346.046,544.403c-1.67,0.522-2.957,0.731-4.349,0.731
		c-3.131,0-4.836-1.774-4.836-5.079c0-0.661,0.07-1.357,0.174-2.087l0.383-2.261l0.278-1.809l2.644-15.829h6.053l-0.696,3.444h3.131
		l-0.835,5.636h-3.131l-1.6,9.671c-0.07,0.417-0.104,0.73-0.104,0.939c0,1.218,0.626,1.739,2.052,1.739
		c0.696,0,1.252-0.07,1.67-0.243L346.046,544.403z"/>
	<path id="path58378" style="fill:#FFFFFF;" d="M322.633,528.817c0,2.922,1.426,4.94,4.627,6.471
		c2.47,1.148,2.853,1.496,2.853,2.539c0,1.461-1.078,2.122-3.479,2.122c-1.844,0-3.514-0.278-5.462-0.939l-0.835,5.357l0.244,0.07
		l1.148,0.209c0.348,0.07,0.87,0.139,1.566,0.209c1.461,0.139,2.574,0.209,3.374,0.209c6.436,0,9.393-2.47,9.393-7.758
		c0-3.166-1.252-5.044-4.279-6.436c-2.574-1.183-2.853-1.426-2.853-2.505c0-1.252,1.009-1.913,2.957-1.913
		c1.218,0,2.853,0.139,4.383,0.348l0.87-5.357c-1.566-0.244-3.966-0.452-5.357-0.452
		C324.964,520.99,322.598,524.573,322.633,528.817"/>
	<path id="path58380" style="fill:#FFFFFF;" d="M438.339,539.219c2.853,0,4.836-3.201,4.836-7.793c0-2.957-1.113-4.557-3.235-4.557
		c-2.748,0-4.731,3.235-4.731,7.793C435.208,537.688,436.252,539.219,438.339,539.219 M447.349,544.681h-5.775l0.313-2.261
		c-1.705,1.774-3.409,2.574-5.671,2.574c-4.418,0-7.34-3.827-7.34-9.636c0-7.688,4.522-14.194,9.915-14.194
		c2.366,0,4.175,0.974,5.845,3.166l1.322-8.141h6.018L447.349,544.681z"/>
	<path id="path58382" style="fill:#FFFFFF;" d="M361.283,530.383c0.035-0.487,0.035-0.87,0.035-1.183
		c0-1.879-1.078-2.957-2.887-2.957c-1.948,0-3.305,1.461-3.896,4.14H361.283z M364.692,544.194
		c-2.087,0.626-4.105,0.939-6.262,0.939c-6.819,0-10.367-3.583-10.367-10.402c0-7.932,4.522-13.811,10.68-13.811
		c5.01,0,8.21,3.27,8.21,8.419c0,1.705-0.209,3.374-0.731,5.74h-12.141c-0.035,0.348-0.07,0.522-0.07,0.73
		c0,2.679,1.809,4.036,5.357,4.036c2.192,0,4.14-0.452,6.331-1.461L364.692,544.194z"/>
	<path id="path58384" style="fill:#FFFFFF;" d="M299.499,544.681h-6.088l3.479-21.917l-7.792,21.917h-4.14l-0.522-21.777
		l-3.687,21.777h-5.705l4.766-28.492h8.767l0.244,17.638l5.949-17.638h9.463L299.499,544.681z"/>
	<path id="path58386" style="fill:#FFFFFF;" d="M318.98,544.681h-5.079l0.139-2.4c-1.566,1.913-3.618,2.818-6.401,2.818
		c-3.305,0-5.566-2.609-5.566-6.331c0-5.67,3.931-8.941,10.68-8.941c0.696,0,1.6,0.07,2.505,0.174
		c0.174-0.765,0.243-1.113,0.243-1.496c0-1.565-1.078-2.122-3.931-2.122c-1.739,0-3.688,0.244-5.044,0.661l-0.835,0.243
		l-0.557,0.139l0.835-5.218c3.061-0.87,5.044-1.218,7.306-1.218c5.218,0,8.001,2.331,8.001,6.784c0,1.148-0.104,2.018-0.487,4.592
		l-1.287,8.245l-0.209,1.461l-0.139,1.183l-0.104,0.8L318.98,544.681z M314.527,534.349c-0.626-0.07-0.904-0.07-1.357-0.07
		c-3.444,0-5.218,1.183-5.218,3.514c0,1.426,0.87,2.366,2.192,2.366C312.649,540.158,314.423,537.793,314.527,534.349"/>
	<path id="path58388" style="fill:#FFFFFF;" d="M415.066,544.681h-5.079l0.139-2.4c-1.566,1.913-3.618,2.818-6.401,2.818
		c-3.305,0-5.566-2.609-5.566-6.331c0-5.67,3.931-8.941,10.715-8.941c0.696,0,1.565,0.07,2.47,0.174
		c0.209-0.765,0.243-1.113,0.243-1.496c0-1.565-1.078-2.122-3.896-2.122c-1.739,0-3.722,0.244-5.079,0.661l-0.835,0.243
		l-0.557,0.139l0.835-5.218c3.061-0.87,5.044-1.218,7.306-1.218c5.253,0,8.001,2.331,8.001,6.784c0,1.148-0.07,2.018-0.487,4.592
		l-1.287,8.245l-0.209,1.461l-0.139,1.183l-0.104,0.8L415.066,544.681z M410.613,534.349c-0.626-0.07-0.905-0.07-1.357-0.07
		c-3.444,0-5.218,1.183-5.218,3.514c0,1.426,0.87,2.366,2.192,2.366C408.734,540.158,410.508,537.793,410.613,534.349"/>
	<path id="path58390" style="fill:#FFFFFF;" d="M431.416,521.303c-0.174-0.035-0.383-0.035-0.626-0.035
		c-1.983,0-3.131,1.009-5.01,3.757l0.557-3.514h-5.531l-3.722,23.169h6.123c2.157-14.159,2.748-16.629,5.671-16.629
		c0.174,0,0.174,0,0.417,0.035c0.557-2.783,1.287-4.836,2.331-6.714L431.416,521.303z"/>
</g>
</svg>
