<?xml version="1.0" encoding="iso-8859-1"?>
<!-- Generator: Adobe Illustrator 18.0.0, SVG Export Plug-In . SVG Version: 6.00 Build 0)  -->
<!DOCTYPE svg PUBLIC "-//W3C//DTD SVG 1.1//EN" "http://www.w3.org/Graphics/SVG/1.1/DTD/svg11.dtd">
<svg version="1.1" id="svg1389" xmlns="http://www.w3.org/2000/svg" xmlns:xlink="http://www.w3.org/1999/xlink" x="0px" y="0px"
	 viewBox="0 0 1135 714" style="enable-background:new 0 0 1135 714;" xml:space="preserve">
<g id="layer2">
	<rect id="rect1441" x="47" y="37" style="fill:#1B1D74;" width="1041" height="170"/>
	<path id="rect2316" style="fill:#1B1D74;" d="M0,0v714h1135V0H0z M13,13h1109v689H13V13z"/>
	<rect id="rect3194" x="47" y="507" style="fill:#E59703;" width="1041" height="170"/>
	<path id="path3214" style="fill:#1B1D74;" d="M226.422,245.456l0.055-7.052l107.041,2.038l1.901,150.011l88.117-149.02l52.98,0.083
		L335.518,475.479H275.45c0,0-3.164-119.421-4.902-178.247C269.072,247.27,246.102,251.626,226.422,245.456z"/>
	<path id="path4089" style="fill:#1B1D74;" d="M421.645,475.518h60.85l76.123-236.068h-60.269L421.645,475.518z"/>
	<path id="path4964" style="fill:#1B1D74;" d="M721.109,292.451c0,0-32.239-20.069-50.035-20.069
		c-11.436,0-31.953,10.314-31.953,28.116c0,37.156,68.392,35.485,68.392,95.907c0,28.357-15.71,82.127-99.052,82.127
		c-56.398,0-79.489-24.677-79.489-24.677l19.466-35.346c0,0,24.549,18.035,58.173,18.035c24.863,0,41.064-9.737,41.064-24.601
		c0-30.31-74.173-43.283-74.173-95.815c0-42.498,39.22-82.59,99.052-82.59c49.049,0,71.954,28.486,71.954,28.486L721.109,292.451z"
		/>
	<path id="path5839" style="fill:#1B1D74;" d="M897.5,241.438l-67.969,0.031L702.469,475.5h54.281l23.812-47.031h68.844L849.5,475.5
		h58.062L897.5,241.438z M840.5,306.656l7,83.812l-51.031,0.031L840.5,306.656z"/>
</g>
</svg>
